<?xml version="1.0" encoding="UTF-8"?> <svg xmlns="http://www.w3.org/2000/svg" viewBox="0 0 20.36 20.47"> <defs> <style>.cls-1{fill:#fff;}</style> </defs> <g id="Слой_2" data-name="Слой 2"> <g id="Слой_1-2" data-name="Слой 1"> <path class="cls-1" d="M6.49,20.47A8,8,0,0,1,.86,18.14L.12,17.4a.42.42,0,0,1,0-.59L4.63,12.3a.43.43,0,0,1,.58,0l2,2a1.4,1.4,0,0,0,1.94,0l4.91-4.91a1.38,1.38,0,0,0,0-1.94L12,5.38a.45.45,0,0,1-.12-.29.42.42,0,0,1,.13-.3L16.76.12a.42.42,0,0,1,.59,0L18,.75a8.16,8.16,0,0,1,0,11.53l-5.85,5.86A8,8,0,0,1,6.49,20.47ZM1,17.1l.45.45a7.13,7.13,0,0,0,10.09,0l5.85-5.85a7.32,7.32,0,0,0,0-10.36L17.05,1,12.88,5.09l1.8,1.8a2.22,2.22,0,0,1,0,3.12L9.77,14.92a2.22,2.22,0,0,1-3.12,0L4.92,13.18Z"></path> <path class="cls-1" d="M12.59,8a.4.4,0,0,1-.29-.12.39.39,0,0,1,0-.58l7-7a.42.42,0,0,1,.59,0,.42.42,0,0,1,0,.59l-7,7A.42.42,0,0,1,12.59,8Z"></path> <path class="cls-1" d="M.49,20.11A.4.4,0,0,1,.2,20a.39.39,0,0,1,0-.58l7-7a.42.42,0,0,1,.59.59l-7,7A.42.42,0,0,1,.49,20.11Z"></path> </g> </g> </svg> 