<?xml version="1.0" encoding="UTF-8"?> <svg xmlns="http://www.w3.org/2000/svg" viewBox="0 0 45.61 27.67"> <defs> <style>.cls-1{fill:#fff;}</style> </defs> <g id="Слой_2" data-name="Слой 2"> <g id="Слой_1-2" data-name="Слой 1"> <path class="cls-1" d="M6.83,27.67a.52.52,0,0,1-.21,0,.55.55,0,0,1-.35-.51V23.27H.56A.56.56,0,0,1,0,22.71V5.52A.56.56,0,0,1,.56,5H29.3a.56.56,0,0,1,.55.56V22.71a.56.56,0,0,1-.55.56H11.13L7.24,27.49A.55.55,0,0,1,6.83,27.67ZM1.11,22.15H6.83a.56.56,0,0,1,.4.17.55.55,0,0,1,.16.39v3l3.08-3.36a.59.59,0,0,1,.41-.18H28.74V6.07H1.11Z"></path> <path class="cls-1" d="M38.78,22.71a.55.55,0,0,1-.41-.18l-3.89-4.22H29.3a.56.56,0,1,1,0-1.12h5.43a.59.59,0,0,1,.41.18l3.08,3.36v-3a.55.55,0,0,1,.16-.39.56.56,0,0,1,.4-.17H44.5V1.11H16.87V5.52a.56.56,0,0,1-1.12,0v-5A.56.56,0,0,1,16.31,0H45.05a.56.56,0,0,1,.56.56V17.75a.56.56,0,0,1-.56.56H39.33v3.84a.55.55,0,0,1-.36.52A.45.45,0,0,1,38.78,22.71Z"></path> <path class="cls-1" d="M21.79,12.63H8.25a.56.56,0,0,1-.55-.56.55.55,0,0,1,.55-.55H21.79a.55.55,0,0,1,.56.55A.56.56,0,0,1,21.79,12.63Z"></path> <path class="cls-1" d="M21.79,17.25H8.25a.56.56,0,0,1,0-1.12H21.79a.56.56,0,1,1,0,1.12Z"></path> </g> </g> </svg> 